<svg xmlns="http://www.w3.org/2000/svg" id="Layer_1" version="1.1" viewBox="0 0 24 24"><defs><style>.st0,.st1{fill:none}.st1{stroke:#fff;stroke-linecap:round;stroke-linejoin:round;stroke-width:1.5px}</style></defs><path d="M0,0h24v24H0V0Z" class="st0"/><path d="M12,20h-7c-1.1,0-2-.9-2-2V6c0-1.1.9-2,2-2h14c1.1,0,2,.9,2,2v6" class="st1"/><path d="M9,17h3" class="st1"/><path d="M17,19c0,1.1.9,2,2,2s2-.9,2-2-.9-2-2-2-2,.9-2,2" class="st1"/><path d="M19,15.5v1.5" class="st1"/><path d="M19,21v1.5" class="st1"/><path d="M22,17.2l-1.3.8" class="st1"/><path d="M17.3,20l-1.3.8" class="st1"/><path d="M16,17.2l1.3.8" class="st1"/><path d="M20.7,20l1.3.8" class="st1"/></svg>